<svg xmlns="http://www.w3.org/2000/svg" width="118" height="118" viewBox="0 0 118 118" fill="none"><path d="M59 1.18092C59 0.528714 58.4711 -0.00123407 57.819 0.0118113C44.2515 0.283243 31.178 5.22508 20.8149 14.0234C10.1514 23.0767 3.05138 35.6243 0.781773 49.4272C-1.48784 63.2302 1.22059 77.3906 8.42378 89.3817C15.627 101.373 26.8563 110.415 40.1081 114.894C53.36 119.373 67.7721 118.998 80.7731 113.836C93.774 108.673 104.518 99.0598 111.088 86.7103C117.658 74.3608 119.626 60.0787 116.642 46.4125C113.741 33.1312 106.347 21.2712 95.726 12.8243C95.2156 12.4183 94.4736 12.5187 94.078 13.0371C93.6823 13.5556 93.7827 14.2957 94.2928 14.7021C104.469 22.8091 111.553 34.1822 114.334 46.9164C117.199 60.0356 115.31 73.7459 109.003 85.601C102.696 97.4562 92.382 106.685 79.9015 111.64C67.421 116.596 53.5857 116.956 40.8644 112.656C28.1431 108.356 17.3632 99.6766 10.4484 88.1655C3.53356 76.6544 0.933554 63.0608 3.11231 49.8104C5.29106 36.56 12.1068 24.5147 22.3435 15.8238C32.2797 7.38796 44.8116 2.64521 57.8191 2.37413C58.4711 2.36055 59 1.83312 59 1.18092Z" fill="#E1E1E1"></path><path d="M21.4055 15.0717C20.9814 14.5761 20.235 14.5174 19.7481 14.9513C9.61658 23.9792 2.89715 36.2344 0.74444 49.6571C-1.47067 63.4689 1.29363 77.6185 8.5441 89.5811C15.7946 101.544 27.0595 110.541 40.3289 114.968C53.5983 119.394 68.0089 118.963 80.9894 113.749C93.9698 108.536 104.676 98.8798 111.197 86.5045C117.718 74.1291 119.63 59.8394 116.591 46.1851C113.553 32.5307 105.762 20.4 94.609 11.9575C83.7698 3.75275 70.4403 -0.449927 56.8789 0.0381309C56.2271 0.0615876 55.7287 0.620296 55.7652 1.27148C55.8017 1.92266 56.3592 2.41967 57.011 2.39676C70.0133 1.93967 82.7909 5.97387 93.1835 13.8406C103.89 21.9452 111.369 33.5903 114.286 46.6981C117.203 59.8058 115.367 73.5235 109.107 85.4035C102.847 97.2834 92.57 106.553 80.1091 111.557C67.6483 116.562 53.8145 116.977 41.0763 112.727C28.3381 108.478 17.5241 99.8406 10.5639 88.3569C3.60368 76.8732 0.950036 63.29 3.07647 50.0311C5.14051 37.1613 11.5779 25.4096 21.2841 16.7461C21.7707 16.3118 21.8296 15.5672 21.4055 15.0717Z" fill="#D1B06B"></path><path d="M29.3011 83L36.9511 64.1H40.3711L32.9011 83H29.3011ZM26.3011 65.09V62H40.3711V64.1L38.9011 65.09H26.3011ZM41.8005 80.96L49.5405 72.74C50.1805 72.06 50.7005 71.45 51.1005 70.91C51.5005 70.37 51.7905 69.86 51.9705 69.38C52.1505 68.9 52.2405 68.41 52.2405 67.91C52.2405 66.97 51.9305 66.24 51.3105 65.72C50.7105 65.18 49.9405 64.91 49.0005 64.91C48.0005 64.91 47.1205 65.16 46.3605 65.66C45.6005 66.16 44.9205 66.94 44.3205 68L41.9205 66.02C42.7405 64.6 43.7505 63.53 44.9505 62.81C46.1505 62.07 47.5405 61.7 49.1205 61.7C50.4205 61.7 51.5605 61.96 52.5405 62.48C53.5205 63 54.2805 63.73 54.8205 64.67C55.3605 65.59 55.6305 66.66 55.6305 67.88C55.6305 68.76 55.5205 69.55 55.3005 70.25C55.1005 70.93 54.7505 71.62 54.2505 72.32C53.7505 73 53.0605 73.8 52.1805 74.72L46.2405 80.87L41.8005 80.96ZM41.8005 83V80.96L44.7705 79.91H56.0505V83H41.8005ZM64.571 83.3C63.171 83.3 61.901 83.05 60.761 82.55C59.641 82.03 58.691 81.28 57.911 80.3L60.251 77.96C60.671 78.6 61.261 79.11 62.021 79.49C62.781 79.87 63.611 80.06 64.511 80.06C65.371 80.06 66.111 79.9 66.731 79.58C67.351 79.26 67.831 78.81 68.171 78.23C68.531 77.65 68.711 76.98 68.711 76.22C68.711 75.42 68.531 74.74 68.171 74.18C67.831 73.62 67.331 73.19 66.671 72.89C66.031 72.57 65.251 72.41 64.331 72.41C63.971 72.41 63.601 72.44 63.221 72.5C62.841 72.54 62.501 72.61 62.201 72.71L63.731 70.73C64.151 70.57 64.591 70.44 65.051 70.34C65.531 70.22 65.991 70.16 66.431 70.16C67.511 70.16 68.481 70.42 69.341 70.94C70.221 71.46 70.911 72.19 71.411 73.13C71.931 74.05 72.191 75.14 72.191 76.4C72.191 77.76 71.871 78.96 71.231 80C70.591 81.04 69.701 81.85 68.561 82.43C67.421 83.01 66.091 83.3 64.571 83.3ZM62.201 72.71V70.67L67.811 64.13L71.951 64.04L66.101 70.76L62.201 72.71ZM58.961 65.09V62H71.951V64.04L68.981 65.09H58.961ZM83.2622 83.3C81.6822 83.3 80.2322 82.86 78.9122 81.98C77.6122 81.08 76.5722 79.82 75.7922 78.2C75.0122 76.58 74.6222 74.67 74.6222 72.47C74.6222 70.27 75.0022 68.37 75.7622 66.77C76.5422 65.15 77.5822 63.9 78.8822 63.02C80.1822 62.14 81.6222 61.7 83.2022 61.7C84.8022 61.7 86.2522 62.14 87.5522 63.02C88.8522 63.9 89.8822 65.15 90.6422 66.77C91.4222 68.37 91.8122 70.28 91.8122 72.5C91.8122 74.7 91.4222 76.61 90.6422 78.23C89.8822 79.85 88.8522 81.1 87.5522 81.98C86.2722 82.86 84.8422 83.3 83.2622 83.3ZM83.2022 80.06C84.2422 80.06 85.1422 79.78 85.9022 79.22C86.6622 78.66 87.2522 77.82 87.6722 76.7C88.1122 75.58 88.3322 74.17 88.3322 72.47C88.3322 70.79 88.1122 69.39 87.6722 68.27C87.2522 67.15 86.6522 66.32 85.8722 65.78C85.1122 65.22 84.2222 64.94 83.2022 64.94C82.1822 64.94 81.2822 65.22 80.5022 65.78C79.7422 66.32 79.1522 67.15 78.7322 68.27C78.3122 69.37 78.1022 70.77 78.1022 72.47C78.1022 74.17 78.3122 75.58 78.7322 76.7C79.1522 77.82 79.7422 78.66 80.5022 79.22C81.2822 79.78 82.1822 80.06 83.2022 80.06Z" fill="#1F2732"></path><path d="M59 48C59.3397 47.9996 59.6713 47.8985 59.9519 47.7099C64.1079 44.9312 65.9074 43.026 66.9 41.8349C69.0153 39.2958 70.028 36.6891 69.9994 33.8661C69.9661 30.6313 67.331 28 64.1253 28C61.7943 28 60.1798 29.2932 59.2396 30.3703C59.2098 30.4041 59.173 30.4312 59.1316 30.4497C59.0903 30.4683 59.0454 30.4779 59 30.4779C58.9546 30.4779 58.9097 30.4683 58.8684 30.4497C58.827 30.4312 58.7902 30.4041 58.7604 30.3703C57.8202 29.2922 56.2057 28 53.8747 28C50.669 28 48.0339 30.6312 48.0006 33.8667C47.972 36.6901 48.9858 39.2969 51.1 41.8354C52.0926 43.0266 53.8921 44.9318 58.0481 47.7104C58.3287 47.8988 58.6604 47.9997 59 48Z" fill="#D1B06B"></path></svg>