<svg xmlns="http://www.w3.org/2000/svg" width="118" height="118" viewBox="0 0 118 118" fill="none"><path d="M59 1.18092C59 0.528714 58.4711 -0.00123407 57.819 0.0118113C44.2515 0.283243 31.178 5.22508 20.8149 14.0234C10.1514 23.0767 3.05138 35.6243 0.781773 49.4272C-1.48784 63.2302 1.22059 77.3906 8.42378 89.3817C15.627 101.373 26.8563 110.415 40.1081 114.894C53.36 119.373 67.7721 118.998 80.7731 113.836C93.774 108.673 104.518 99.0598 111.088 86.7103C117.658 74.3608 119.626 60.0787 116.642 46.4125C113.741 33.1312 106.347 21.2712 95.726 12.8243C95.2156 12.4183 94.4736 12.5187 94.078 13.0371C93.6823 13.5556 93.7827 14.2957 94.2928 14.7021C104.469 22.8091 111.553 34.1822 114.334 46.9164C117.199 60.0356 115.31 73.7459 109.003 85.601C102.696 97.4562 92.382 106.685 79.9015 111.64C67.421 116.596 53.5857 116.956 40.8644 112.656C28.1431 108.356 17.3632 99.6766 10.4484 88.1655C3.53356 76.6544 0.933554 63.0608 3.11231 49.8104C5.29106 36.56 12.1068 24.5147 22.3435 15.8238C32.2797 7.38796 44.8116 2.64521 57.8191 2.37413C58.4711 2.36055 59 1.83312 59 1.18092Z" fill="#E1E1E1"></path><path d="M46.8127 2.47971C46.6752 1.84217 46.0463 1.43564 45.4117 1.58583C31.049 4.98478 18.4655 13.6496 10.1666 25.8894C1.64652 38.4553 -1.70161 53.822 0.818528 68.7934C3.33867 83.7649 11.5331 97.1886 23.6975 106.273C35.8619 115.357 51.06 119.402 66.1307 117.567C81.2015 115.732 94.9849 108.159 104.614 96.4209C114.244 84.6833 118.978 69.6855 117.832 54.5468C116.686 39.408 109.748 25.2937 98.462 15.1392C87.4687 5.2483 73.1736 -0.144002 58.415 0.00264323C57.7628 0.00912333 57.2499 0.554667 57.2694 1.20658C57.2889 1.85849 57.8335 2.36985 58.4856 2.36391C72.6367 2.2351 86.3408 7.41058 96.8823 16.895C107.717 26.6429 114.377 40.1923 115.477 54.725C116.577 69.2578 112.032 83.6552 102.788 94.9229C93.5444 106.191 80.3128 113.461 65.8453 115.223C51.3778 116.984 36.7882 113.101 25.1107 104.38C13.4332 95.6599 5.56685 82.7735 3.14759 68.4014C0.728337 54.0293 3.94244 39.2777 12.1214 27.2148C20.0793 15.4781 32.1411 7.16554 45.9097 3.89507C46.5442 3.74434 46.9501 3.11726 46.8127 2.47971Z" fill="#D1B06B"></path><path d="M37.1164 83L43.2664 74.39L44.4964 73.64C44.2964 74.08 44.0364 74.47 43.7164 74.81C43.4164 75.15 43.0164 75.41 42.5164 75.59C42.0164 75.77 41.3764 75.86 40.5964 75.86C39.3964 75.86 38.2964 75.58 37.2964 75.02C36.2964 74.44 35.4964 73.64 34.8964 72.62C34.2964 71.6 33.9964 70.42 33.9964 69.08C33.9964 67.72 34.3264 66.48 34.9864 65.36C35.6664 64.24 36.5664 63.35 37.6864 62.69C38.8064 62.03 40.0564 61.7 41.4364 61.7C42.8364 61.7 44.0964 62.03 45.2164 62.69C46.3364 63.33 47.2164 64.2 47.8564 65.3C48.5164 66.38 48.8464 67.6 48.8464 68.96C48.8464 70.88 48.1764 72.82 46.8364 74.78L41.1064 83H37.1164ZM41.4364 73.16C42.1964 73.16 42.8764 72.98 43.4764 72.62C44.0764 72.26 44.5464 71.77 44.8864 71.15C45.2264 70.53 45.3964 69.84 45.3964 69.08C45.3964 68.28 45.2264 67.57 44.8864 66.95C44.5464 66.33 44.0764 65.84 43.4764 65.48C42.8764 65.12 42.1964 64.94 41.4364 64.94C40.6764 64.94 39.9964 65.12 39.3964 65.48C38.7964 65.84 38.3164 66.33 37.9564 66.95C37.6164 67.57 37.4464 68.28 37.4464 69.08C37.4464 69.86 37.6164 70.56 37.9564 71.18C38.3164 71.78 38.7964 72.26 39.3964 72.62C40.0164 72.98 40.6964 73.16 41.4364 73.16ZM57.6034 83.3C56.1634 83.3 54.9134 83.04 53.8534 82.52C52.7934 82 51.9634 81.28 51.3634 80.36C50.7834 79.42 50.4934 78.36 50.4934 77.18C50.4934 76.24 50.6734 75.38 51.0334 74.6C51.4134 73.8 51.9534 73.12 52.6534 72.56C53.3734 72 54.2234 71.6 55.2034 71.36L55.1134 72.32C54.3134 72.1 53.6334 71.74 53.0734 71.24C52.5334 70.74 52.1234 70.15 51.8434 69.47C51.5634 68.79 51.4234 68.08 51.4234 67.34C51.4234 66.22 51.6834 65.24 52.2034 64.4C52.7434 63.54 53.4834 62.87 54.4234 62.39C55.3634 61.91 56.4234 61.67 57.6034 61.67C58.8034 61.67 59.8634 61.91 60.7834 62.39C61.7234 62.87 62.4534 63.54 62.9734 64.4C63.5134 65.24 63.7834 66.22 63.7834 67.34C63.7834 68.08 63.6434 68.79 63.3634 69.47C63.0834 70.15 62.6734 70.74 62.1334 71.24C61.5934 71.74 60.9134 72.1 60.0934 72.32L60.0034 71.36C61.0034 71.6 61.8534 72 62.5534 72.56C63.2534 73.12 63.7834 73.8 64.1434 74.6C64.5234 75.38 64.7134 76.24 64.7134 77.18C64.7134 78.36 64.4234 79.42 63.8434 80.36C63.2634 81.28 62.4334 82 61.3534 82.52C60.2934 83.04 59.0434 83.3 57.6034 83.3ZM57.6034 80.18C58.3434 80.18 58.9934 80.03 59.5534 79.73C60.1334 79.43 60.5834 79.02 60.9034 78.5C61.2434 77.98 61.4134 77.39 61.4134 76.73C61.4134 76.05 61.2434 75.46 60.9034 74.96C60.5834 74.44 60.1334 74.03 59.5534 73.73C58.9934 73.43 58.3434 73.28 57.6034 73.28C56.8634 73.28 56.2034 73.43 55.6234 73.73C55.0634 74.03 54.6134 74.44 54.2734 74.96C53.9534 75.46 53.7934 76.05 53.7934 76.73C53.7934 77.39 53.9534 77.98 54.2734 78.5C54.6134 79.02 55.0634 79.43 55.6234 79.73C56.2034 80.03 56.8634 80.18 57.6034 80.18ZM57.6034 70.58C58.4834 70.58 59.2034 70.3 59.7634 69.74C60.3234 69.18 60.6034 68.46 60.6034 67.58C60.6034 66.7 60.3234 65.99 59.7634 65.45C59.2034 64.89 58.4834 64.61 57.6034 64.61C56.7434 64.61 56.0234 64.89 55.4434 65.45C54.8834 65.99 54.6034 66.7 54.6034 67.58C54.6034 68.46 54.8834 69.18 55.4434 69.74C56.0234 70.3 56.7434 70.58 57.6034 70.58ZM71.2789 70.19C70.4989 70.19 69.7789 70 69.1189 69.62C68.4789 69.24 67.9689 68.73 67.5889 68.09C67.2089 67.45 67.0189 66.73 67.0189 65.93C67.0189 65.13 67.2089 64.42 67.5889 63.8C67.9689 63.16 68.4789 62.65 69.1189 62.27C69.7589 61.89 70.4789 61.7 71.2789 61.7C72.0789 61.7 72.7989 61.89 73.4389 62.27C74.0989 62.65 74.6189 63.16 74.9989 63.8C75.3789 64.42 75.5689 65.13 75.5689 65.93C75.5689 66.73 75.3789 67.45 74.9989 68.09C74.6189 68.73 74.1089 69.24 73.4689 69.62C72.8289 70 72.0989 70.19 71.2789 70.19ZM71.2789 67.64C71.7789 67.64 72.1789 67.48 72.4789 67.16C72.7789 66.84 72.9289 66.43 72.9289 65.93C72.9289 65.43 72.7689 65.03 72.4489 64.73C72.1489 64.41 71.7589 64.25 71.2789 64.25C70.7989 64.25 70.4089 64.41 70.1089 64.73C69.8089 65.03 69.6589 65.43 69.6589 65.93C69.6589 66.43 69.8089 66.84 70.1089 67.16C70.4089 67.48 70.7989 67.64 71.2789 67.64ZM80.0689 83.3C79.2889 83.3 78.5689 83.11 77.9089 82.73C77.2689 82.35 76.7589 81.84 76.3789 81.2C75.9989 80.56 75.8089 79.84 75.8089 79.04C75.8089 78.24 75.9989 77.53 76.3789 76.91C76.7589 76.27 77.2689 75.76 77.9089 75.38C78.5489 75 79.2689 74.81 80.0689 74.81C80.8689 74.81 81.5889 75 82.2289 75.38C82.8889 75.76 83.4089 76.27 83.7889 76.91C84.1689 77.53 84.3589 78.24 84.3589 79.04C84.3589 79.84 84.1689 80.56 83.7889 81.2C83.4089 81.84 82.8989 82.35 82.2589 82.73C81.6189 83.11 80.8889 83.3 80.0689 83.3ZM80.0689 80.75C80.5689 80.75 80.9689 80.59 81.2689 80.27C81.5889 79.95 81.7489 79.54 81.7489 79.04C81.7489 78.56 81.5889 78.16 81.2689 77.84C80.9489 77.52 80.5489 77.36 80.0689 77.36C79.5889 77.36 79.1989 77.52 78.8989 77.84C78.5989 78.16 78.4489 78.56 78.4489 79.04C78.4489 79.54 78.5989 79.95 78.8989 80.27C79.1989 80.59 79.5889 80.75 80.0689 80.75ZM67.3189 83L80.7889 62H84.0589L70.5889 83H67.3189Z" fill="#1F2732"></path><path d="M59 28L61.9187 36.9828H71.3637L63.7225 42.5344L66.6412 51.5172L59 45.9656L51.3588 51.5172L54.2775 42.5344L46.6363 36.9828H56.0813L59 28Z" fill="#D1B06B"></path></svg>