<svg xmlns="http://www.w3.org/2000/svg" width="94" height="94" viewBox="0 0 94 94" fill="none"><rect width="94" height="94" fill="#1F2732"></rect><path d="M31.672 63L19.704 31.936H27.096L36.204 57.06H33.168L42.408 31.936H49.712L37.612 63H31.672ZM53.8734 63.484C52.7294 63.484 51.7761 63.088 51.0134 62.296C50.2508 61.504 49.8694 60.5507 49.8694 59.436C49.8694 58.2627 50.2508 57.2947 51.0134 56.532C51.7761 55.74 52.7294 55.344 53.8734 55.344C55.0468 55.344 56.0001 55.74 56.7334 56.532C57.4961 57.2947 57.8774 58.2627 57.8774 59.436C57.8774 60.5507 57.4961 61.504 56.7334 62.296C56.0001 63.088 55.0468 63.484 53.8734 63.484ZM64.1921 63V31.936H71.0561V63H64.1921ZM58.2081 37.788V31.936H70.6161V37.788H58.2081Z" fill="white"></path></svg>